<svg id="Layer_1" data-name="Layer 1" xmlns="http://www.w3.org/2000/svg" xmlns:xlink="http://www.w3.org/1999/xlink" viewBox="0 0 439.02 279.15"><defs><style>.cls-1{fill:#303e48;}.cls-2{fill:url(#linear-gradient);}</style><linearGradient id="linear-gradient" x1="234.21" y1="-21.54" x2="189.5" y2="116.3" gradientUnits="userSpaceOnUse"><stop offset="0" stop-color="#ff8741"/><stop offset="1" stop-color="#ff506c"/></linearGradient></defs><title>Alva</title><polygon class="cls-1" points="84.13 265.19 60.52 209.78 36.58 265.19 21.95 265.19 53.37 192.59 68.94 192.59 100.26 265.19 84.13 265.19"/><polygon class="cls-1" points="400.93 265.19 377.32 209.78 353.38 265.19 338.75 265.19 370.17 192.59 385.74 192.59 417.06 265.19 400.93 265.19"/><polygon class="cls-1" points="146.61 265.19 146.61 192.59 161.56 192.59 161.56 253.45 199.17 253.45 199.17 265.19 146.61 265.19"/><polygon class="cls-1" points="262.43 265.19 231.11 192.59 247.24 192.59 270.85 248.01 294.79 192.59 309.42 192.59 278 265.19 262.43 265.19"/><path class="cls-2" d="M204.31,141.43l15.2-31.32,15.2,31.32ZM76,23.78C111.9,2,188.27,17.28,213.25,61.46L164.57,166.17c.5-36.48-49.31-39.2-2.78-80C111.26,73.07,137.54,15.61,76,23.78Zm286.93,0C327.11,2,250.75,17.28,225.76,61.46l48.69,104.71c-.5-36.48,49.31-39.2,2.78-80C327.76,73.07,301.47,15.61,363,23.78Z"/></svg>